<?xml version="1.0" encoding="UTF-8"?>
<svg width="160px" height="26px" viewBox="0 0 160 26" version="1.1" xmlns="http://www.w3.org/2000/svg" xmlns:xlink="http://www.w3.org/1999/xlink">
    <!-- Generator: Sketch 49.3 (51167) - http://www.bohemiancoding.com/sketch -->
    <title>logo/dark</title>
    <desc>Created with Sketch.</desc>
    <defs></defs>
    <g id="Components" stroke="none" stroke-width="1" fill="none" fill-rule="evenodd">
        <g id="Desktop-Nav" transform="translate(-138.000000, -36.000000)" fill="#7F465C">
            <g id="logo/dark" transform="translate(135.000000, 32.900002)">
                <g>
                    <g id="logo-copy" fill-rule="nonzero">
                        <path d="M11.8568697,22.4206129 C12.6264926,23.0563375 13.2801429,23.6453132 13.9145474,24.2636561 C14.1651519,24.5079158 14.4058504,24.7496676 14.690128,25.0408742 C14.8021639,25.1556409 15.2607962,25.6286167 15.3789656,25.7495049 C15.5561046,25.9307195 15.7067846,26.0825775 15.8536267,26.2273129 C16.2546073,26.6225406 16.6267472,26.963543 17.0359222,27.3053076 C19.7926278,29.5977532 21.558885,30.4222262 24.2145398,30.2102595 C27.337567,30.1330154 30.3469127,27.273467 30.373891,24.1426119 C30.1831634,21.7911527 29.4348347,20.378759 28.022664,19.3725634 L28.0218394,17.8946319 C29.7263336,16.677274 30.5182888,15.0679696 30.2042553,12.8148136 C30.0667406,11.8007876 29.6647734,10.7558608 28.8990565,9.85674401 C27.815518,8.58443624 26.1236468,7.75704712 23.648026,7.54746353 C18.3938134,7.56686883 13.025291,11.7479284 7.59713789,20.2155402 C9.33119579,20.7249711 10.7530938,21.4574245 11.8568697,22.4206129 Z M19.5156963,31.1629365 C18.3371737,30.6128128 17.3173321,29.8972694 15.8777128,28.7000953 C15.4264476,28.3231778 15.0181225,27.9490179 14.5835007,27.5206316 C14.4277439,27.3671095 14.2694639,27.207592 14.0850512,27.0189363 C12.1545201,25.0439874 11.9749992,24.8690115 10.6953194,23.8126675 C9.56969911,22.8277468 8.00682724,22.1158032 5.97554858,21.6742254 L5.39710158,20.3110834 C11.3580855,10.6396156 17.4333093,5.73306839 23.6847751,5.73306839 C26.7188045,5.97856854 28.8679729,7.02490525 30.2767788,8.67914718 C31.2927538,9.87212089 31.8180237,11.2375772 31.998336,12.5672364 C32.3510842,15.0981159 31.5895111,17.114799 29.9672099,18.6408627 C31.2719326,19.921435 31.9950998,21.646713 32.1823185,24.0377357 C32.1790558,28.2598518 28.3631375,31.9080428 24.3337772,32.0207916 C22.5718515,32.1575222 21.0071597,31.8591381 19.5156963,31.1629365 Z" id="Path-2-Copy-4" transform="translate(18.791096, 18.893115) rotate(225.000000) translate(-18.791096, -18.893115) "></path>
                        <path d="M12.6271653,13.2687513 C11.9105582,13.1361511 11.3257904,13.1725271 11.0010841,13.3651406 C10.7498197,13.5141888 10.6100866,13.7892796 10.6100866,14.3471486 C10.6100866,14.7949276 10.7220609,15.0338398 10.9106503,15.1640317 C11.1736273,15.3455769 11.6735748,15.3788399 12.2475539,15.2154775 C13.4889271,14.8803474 14.4827164,14.5490574 15.3457422,14.1344388 C14.635885,13.8402338 13.7659324,13.5689797 12.6271653,13.2687513 Z M16.7428343,13.308584 C17.3043667,12.903625 17.8432889,12.717917 18.349877,12.8094769 C18.9881545,12.9248381 19.4032607,13.4673836 19.376152,14.0818688 C19.3215532,15.3194845 17.9446841,15.7122035 16.7888524,14.9053289 C16.7597392,14.8850052 16.7302874,14.8648492 16.7013329,14.84542 C16.3076682,14.5819071 15.8704398,14.3519032 15.3457422,14.1344388 C15.8480606,13.8931128 16.3060797,13.6235572 16.7428343,13.308584 Z M12.7307468,16.9639913 C11.6950203,17.2589338 10.6531039,17.1896118 9.88304432,16.6580042 C9.17701531,16.1705999 8.79906245,15.3641872 8.79906245,14.3471486 C8.79906245,13.177889 9.24621021,12.2975949 10.0783729,11.8039619 C10.8662062,11.3366248 11.872813,11.2780595 12.995184,11.4919417 L13.0558836,11.5056896 C15.2370815,12.0792999 16.5643579,12.5716715 17.7083106,13.337416 C17.7473199,13.3635914 17.7859593,13.3900351 17.8242321,13.416753 C17.9184713,13.4825404 17.9880965,13.516423 18.028478,13.526954 C18.0143416,13.5232674 17.9731044,13.5228459 17.9148233,13.5394692 C17.7224309,13.5943446 17.5766398,13.7808495 17.5668941,14.0017599 C17.5546481,14.279345 17.7588808,14.546278 18.0283422,14.59498 C18.0878221,14.6057303 18.1147322,14.6027336 18.1070963,14.6053648 C18.0363418,14.6297462 17.9321782,14.6863889 17.8008835,14.7810743 C16.3884564,15.7996711 14.8799547,16.383864 12.7307468,16.9639913 Z" id="Path-2-Copy-4-Copy" transform="translate(14.088234, 14.255157) rotate(225.000000) translate(-14.088234, -14.255157) "></path>
                        <path d="M6.93819859,9.73595293 L7.20063697,8.04278988 C8.9229169,8.31071601 9.99505678,8.50202322 10.4644861,8.62815983 C11.4127514,8.88296075 13.0129981,9.59101009 13.6719278,10.0261512 C14.697088,10.7031423 15.2810231,11.6675022 15.3746215,12.8553656 L13.6695906,12.9902051 C13.618106,12.3368113 13.3214882,11.8469514 12.7306253,11.4567599 C12.2279711,11.1248192 10.7961639,10.4912981 10.0214124,10.2831207 C9.63549069,10.1794227 8.59194205,9.9932172 6.93819859,9.73595293 Z" id="Path-5" transform="translate(11.156410, 10.516497) rotate(195.000000) translate(-11.156410, -10.516497) "></path>
                    </g>
                    <path d="M39.9811321,27.1135135 L39.9811321,9.32027027 L50.8221698,9.32027027 L50.8221698,11.4513514 L42.4671384,11.4513514 L42.4671384,16.7405405 L49.8995283,16.7405405 L49.8995283,18.8202703 L42.4671384,18.8202703 L42.4671384,24.9824324 L51.4628931,24.9824324 L51.4628931,27.1135135 L39.9811321,27.1135135 Z M64.4091644,13.7621622 C63.7428089,16.2612738 62.9611343,18.6576462 62.0641173,20.9513514 C61.1671002,23.2450565 60.2999967,25.29909 59.4627808,27.1135135 L57.3099506,27.1135135 C56.4727347,25.29909 55.6056312,23.2450565 54.7086141,20.9513514 C53.811597,18.6576462 53.0299225,16.2612738 52.3635669,13.7621622 L54.92646,13.7621622 C55.1314925,14.6009051 55.3749649,15.4952655 55.6568846,16.4452703 C55.9388042,17.395275 56.2378054,18.336707 56.5538971,19.2695946 C56.8699889,20.2024821 57.1903473,21.105401 57.514982,21.9783784 C57.8396168,22.8513557 58.1471609,23.6301768 58.4376235,24.3148649 C58.7280862,23.6301768 59.0356303,22.8513557 59.3602651,21.9783784 C59.6848998,21.105401 60.0052582,20.2024821 60.32135,19.2695946 C60.6374417,18.336707 60.9364429,17.395275 61.2183625,16.4452703 C61.5002822,15.4952655 61.7437546,14.6009051 61.9487871,13.7621622 L64.4091644,13.7621622 Z M65.9505616,20.4635135 C65.9505616,19.2824265 66.1214194,18.2511305 66.4631402,17.3695946 C66.804861,16.4880587 67.2576342,15.7563092 67.8214735,15.1743243 C68.3853128,14.5923394 69.0345726,14.1558573 69.7692722,13.8648649 C70.5039719,13.5738724 71.2557464,13.4283784 72.0246182,13.4283784 C73.8186523,13.4283784 75.1940578,13.9889584 76.150876,15.1101351 C77.1076942,16.2313119 77.5860961,17.9387273 77.5860961,20.2324324 L77.5860961,20.6304054 C77.5860961,20.7930188 77.5775533,20.9427921 77.5604672,21.0797297 L68.4365678,21.0797297 C68.5390841,22.4662231 68.9406,23.5189153 69.6411276,24.2378378 C70.3416552,24.9567604 71.4351453,25.3162162 72.9216307,25.3162162 C73.7588467,25.3162162 74.4636352,25.2434692 75.0360175,25.097973 C75.6083998,24.9524768 76.0398159,24.8112619 76.3302785,24.6743243 L76.6634546,26.677027 C76.372992,26.8310819 75.8646899,26.9936928 75.1385333,27.1648649 C74.4123766,27.3360369 73.5879876,27.4216216 72.6653414,27.4216216 C71.5034908,27.4216216 70.499701,27.2461729 69.6539421,26.8952703 C68.8081831,26.5443676 68.1119375,26.0608139 67.5651842,25.4445946 C67.0184309,24.8283753 66.6126436,24.0966259 66.34781,23.2493243 C66.0829764,22.4020228 65.9505616,21.4734285 65.9505616,20.4635135 Z M75.1000899,19.1540541 C75.1171759,18.0756703 74.8480748,17.1898683 74.2927785,16.4966216 C73.7374823,15.8033749 72.9728935,15.4567568 71.9989892,15.4567568 C71.452236,15.4567568 70.9695626,15.5637377 70.5509546,15.7777027 C70.1323467,15.9916677 69.7778167,16.2698181 69.487354,16.6121622 C69.1968913,16.9545062 68.9705047,17.348196 68.8081873,17.7932432 C68.64587,18.2382905 68.5390838,18.6918896 68.4878257,19.1540541 L75.1000899,19.1540541 Z M85.7031478,13.4797297 C85.9081803,13.4797297 86.1431098,13.4925674 86.4079434,13.5182432 C86.672777,13.543919 86.9333352,13.5781529 87.1896258,13.6209459 C87.4459164,13.663739 87.6808459,13.7065313 87.8944214,13.7493243 C88.1079969,13.7921173 88.2660404,13.8306305 88.3685566,13.8648649 L87.9584937,15.9445946 C87.7705473,15.8761258 87.4587317,15.7948203 87.0230377,15.7006757 C86.5873437,15.6065311 86.0277843,15.5594595 85.3443428,15.5594595 C84.9001057,15.5594595 84.4601468,15.6065311 84.0244528,15.7006757 C83.5887588,15.7948203 83.3025719,15.8590088 83.1658836,15.8932432 L83.1658836,27.1135135 L80.7823931,27.1135135 L80.7823931,14.327027 C81.3462324,14.1216206 82.0467495,13.929055 82.8839654,13.7493243 C83.7211813,13.5695937 84.6608994,13.4797297 85.7031478,13.4797297 Z M108.223652,24.9567568 L108.223652,27.1135135 L97.5363882,27.1135135 L97.5363882,9.32027027 L100.022394,9.32027027 L100.022394,24.9567568 L108.223652,24.9567568 Z M122.323226,20.4378378 C122.323226,21.4991044 122.169453,22.4576534 121.861905,23.3135135 C121.554356,24.1693736 121.12294,24.9054023 120.567644,25.5216216 C120.012348,26.1378409 119.350273,26.6128362 118.581402,26.9466216 C117.81253,27.2804071 116.975327,27.4472973 116.069766,27.4472973 C115.164206,27.4472973 114.327003,27.2804071 113.558131,26.9466216 C112.789259,26.6128362 112.127185,26.1378409 111.571889,25.5216216 C111.016593,24.9054023 110.585177,24.1693736 110.277628,23.3135135 C109.970079,22.4576534 109.816307,21.4991044 109.816307,20.4378378 C109.816307,19.3936885 109.970079,18.4394187 110.277628,17.575 C110.585177,16.7105813 111.016593,15.9702734 111.571889,15.3540541 C112.127185,14.7378348 112.789259,14.2628395 113.558131,13.9290541 C114.327003,13.5952686 115.164206,13.4283784 116.069766,13.4283784 C116.975327,13.4283784 117.81253,13.5952686 118.581402,13.9290541 C119.350273,14.2628395 120.012348,14.7378348 120.567644,15.3540541 C121.12294,15.9702734 121.554356,16.7105813 121.861905,17.575 C122.169453,18.4394187 122.323226,19.3936885 122.323226,20.4378378 Z M119.837219,20.4378378 C119.837219,18.931524 119.499775,17.737617 118.824876,16.8560811 C118.149978,15.9745451 117.231617,15.5337838 116.069766,15.5337838 C114.907916,15.5337838 113.989555,15.9745451 113.314656,16.8560811 C112.639758,17.737617 112.302314,18.931524 112.302314,20.4378378 C112.302314,21.9441517 112.639758,23.1380587 113.314656,24.0195946 C113.989555,24.9011305 114.907916,25.3418919 116.069766,25.3418919 C117.231617,25.3418919 118.149978,24.9011305 118.824876,24.0195946 C119.499775,23.1380587 119.837219,21.9441517 119.837219,20.4378378 Z M135.505276,13.7621622 C134.83892,16.2612738 134.057245,18.6576462 133.160228,20.9513514 C132.263211,23.2450565 131.396108,25.29909 130.558892,27.1135135 L128.406062,27.1135135 C127.568846,25.29909 126.701742,23.2450565 125.804725,20.9513514 C124.907708,18.6576462 124.126034,16.2612738 123.459678,13.7621622 L126.022571,13.7621622 C126.227604,14.6009051 126.471076,15.4952655 126.752996,16.4452703 C127.034915,17.395275 127.333916,18.336707 127.650008,19.2695946 C127.9661,20.2024821 128.286458,21.105401 128.611093,21.9783784 C128.935728,22.8513557 129.243272,23.6301768 129.533735,24.3148649 C129.824197,23.6301768 130.131741,22.8513557 130.456376,21.9783784 C130.781011,21.105401 131.101369,20.2024821 131.417461,19.2695946 C131.733553,18.336707 132.032554,17.395275 132.314474,16.4452703 C132.596393,15.4952655 132.839866,14.6009051 133.044898,13.7621622 L135.505276,13.7621622 Z M137.043011,20.4635135 C137.043011,19.2824265 137.213869,18.2511305 137.55559,17.3695946 C137.897311,16.4880587 138.350084,15.7563092 138.913923,15.1743243 C139.477763,14.5923394 140.127022,14.1558573 140.861722,13.8648649 C141.596422,13.5738724 142.348196,13.4283784 143.117068,13.4283784 C144.911102,13.4283784 146.286508,13.9889584 147.243326,15.1101351 C148.200144,16.2313119 148.678546,17.9387273 148.678546,20.2324324 L148.678546,20.6304054 C148.678546,20.7930188 148.670003,20.9427921 148.652917,21.0797297 L139.529018,21.0797297 C139.631534,22.4662231 140.03305,23.5189153 140.733577,24.2378378 C141.434105,24.9567604 142.527595,25.3162162 144.014081,25.3162162 C144.851296,25.3162162 145.556085,25.2434692 146.128467,25.097973 C146.70085,24.9524768 147.132266,24.8112619 147.422728,24.6743243 L147.755904,26.677027 C147.465442,26.8310819 146.95714,26.9936928 146.230983,27.1648649 C145.504826,27.3360369 144.680437,27.4216216 143.757791,27.4216216 C142.595941,27.4216216 141.592151,27.2461729 140.746392,26.8952703 C139.900633,26.5443676 139.204387,26.0608139 138.657634,25.4445946 C138.110881,24.8283753 137.705093,24.0966259 137.44026,23.2493243 C137.175426,22.4020228 137.043011,21.4734285 137.043011,20.4635135 Z M146.187415,19.1540541 C146.204501,18.0756703 145.9354,17.1898683 145.380104,16.4966216 C144.824808,15.8033749 144.060219,15.4567568 143.086314,15.4567568 C142.539561,15.4567568 142.056888,15.5637377 141.63828,15.7777027 C141.219672,15.9916677 140.865142,16.2698181 140.574679,16.6121622 C140.284217,16.9545062 140.05783,17.348196 139.895513,17.7932432 C139.733195,18.2382905 139.626409,18.6918896 139.575151,19.1540541 L146.187415,19.1540541 Z M160.57037,16.5864865 C160.279907,16.3468456 159.861305,16.1157669 159.314552,15.8932432 C158.767799,15.6707196 158.169797,15.5594595 157.520527,15.5594595 C156.837086,15.5594595 156.251897,15.6835573 155.764945,15.9317568 C155.277993,16.1799562 154.880749,16.5222951 154.5732,16.9587838 C154.265651,17.3952725 154.043536,17.9130601 153.906848,18.5121622 C153.77016,19.1112643 153.701816,19.7531497 153.701816,20.4378378 C153.701816,21.9955033 154.086247,23.1979687 154.855118,24.0452703 C155.62399,24.8925718 156.649137,25.3162162 157.93059,25.3162162 C158.579859,25.3162162 159.122333,25.2862616 159.558027,25.2263514 C159.993721,25.1664411 160.331165,25.1022526 160.57037,25.0337838 L160.57037,16.5864865 Z M160.565252,7.6 L162.948742,7.18918919 L162.948742,26.7283784 C162.401989,26.8824332 161.701472,27.0364857 160.84717,27.1905405 C159.992868,27.3445954 159.010435,27.4216216 157.899843,27.4216216 C156.87468,27.4216216 155.952048,27.2590106 155.131918,26.9337838 C154.311788,26.6085569 153.611271,26.1463994 153.030346,25.5472973 C152.449421,24.9481952 152.000919,24.2164458 151.684827,23.352027 C151.368735,22.4876083 151.210692,21.5162216 151.210692,20.4378378 C151.210692,19.4108057 151.343107,18.4693736 151.60794,17.6135135 C151.872774,16.7576534 152.261475,16.0216247 152.774057,15.4054054 C153.286638,14.7891861 153.91454,14.3099116 154.657783,13.9675676 C155.401026,13.6252235 156.251043,13.4540541 157.207862,13.4540541 C157.976733,13.4540541 158.655893,13.5567557 159.245362,13.7621622 C159.83483,13.9675686 160.274789,14.1644135 160.565252,14.3527027 L160.565252,7.6 Z" id="Ever-Loved"></path>
                </g>
            </g>
        </g>
    </g>
</svg>